<svg width="101" height="94" viewBox="0 0 101 94" fill="none" xmlns="http://www.w3.org/2000/svg">
<path d="M101 13.4922C101 13.481 100.998 13.4698 100.998 13.4585C100.997 13.4141 100.994 13.3702 100.989 13.3268C100.987 13.3109 100.984 13.2949 100.982 13.279C100.976 13.239 100.969 13.1995 100.959 13.1609C100.956 13.1455 100.952 13.1304 100.948 13.115C100.936 13.073 100.923 13.0318 100.908 12.9911C100.906 12.9834 100.904 12.9754 100.901 12.9678L96.8875 2.59213C96.4829 1.54663 95.5031 0.87088 94.3915 0.87088H87.084C86.2875 0.87088 85.6418 1.52292 85.6418 2.32737C85.6418 3.13181 86.2875 3.78385 87.084 3.78385H94.2518L97.4458 12.0413H67.2496L65.3576 3.78385H76.5096C77.3062 3.78385 77.9518 3.13181 77.9518 2.32737C77.9518 1.52292 77.3062 0.87088 76.5096 0.87088H63.5436H49.0116H18.1635C17.0517 0.87088 16.0721 1.54663 15.6675 2.59252L11.6541 12.9678C11.6512 12.9756 11.6496 12.9836 11.6466 12.9911C11.6316 13.0316 11.6186 13.0728 11.6072 13.115C11.603 13.1304 11.5991 13.1455 11.5955 13.1609C11.5865 13.1997 11.5792 13.2392 11.5732 13.279C11.5709 13.2949 11.5679 13.3109 11.5659 13.3268C11.561 13.3702 11.5582 13.4141 11.5571 13.4585C11.5569 13.4696 11.5555 13.4808 11.5553 13.4922C11.5553 13.494 11.5551 13.4957 11.5551 13.4975V34.8956C11.5551 35.7 12.2007 36.3521 12.9973 36.3521C13.7939 36.3521 14.4395 35.7 14.4395 34.8956V14.9542H45.0101V37.093C45.0101 37.9588 45.5151 38.7477 46.2969 39.1029C46.5831 39.233 46.8879 39.2965 47.1907 39.2965C47.7146 39.2965 48.2328 39.1065 48.6392 38.7427L56.2775 31.9087L63.9158 38.7425C64.5571 39.3168 65.4768 39.4581 66.2585 39.1029C67.0401 38.7475 67.5451 37.9588 67.5451 37.093V14.9542H98.1155V80.2825C98.1155 81.3276 97.2734 82.1781 96.2385 82.1781H69.7945C69.7945 82.1615 69.7925 82.145 69.7923 82.1285C69.7908 81.9978 69.786 81.8673 69.775 81.7378C72.2579 82.4026 74.911 81.1138 75.906 78.6495C76.4293 77.3532 76.4216 75.9288 75.8841 74.6386C75.8334 74.5171 75.7776 74.3992 75.7188 74.283C75.7079 74.2617 75.6975 74.2402 75.6866 74.2191C75.6288 74.1083 75.5673 74.0002 75.5024 73.8948C75.4897 73.8743 75.4767 73.8543 75.4639 73.834C75.3953 73.7258 75.324 73.6196 75.2481 73.5174C75.2467 73.5155 75.2451 73.5137 75.2438 73.5119C75.1684 73.4109 75.0887 73.3136 75.0064 73.2186C74.9915 73.2013 74.9767 73.1838 74.9615 73.1664C74.88 73.0748 74.7954 72.9861 74.7078 72.9007C74.6906 72.8839 74.6733 72.8678 74.6559 72.8515C74.5642 72.7644 74.4703 72.6797 74.3724 72.5999C74.3691 72.5973 74.3657 72.5947 74.3624 72.5921C74.2661 72.5138 74.1661 72.4397 74.0641 72.3684C74.0458 72.3554 74.0276 72.3423 74.0089 72.3295C73.9069 72.2602 73.8023 72.1946 73.695 72.1323C73.6862 72.1271 73.6781 72.1211 73.669 72.1159C74.2785 71.5832 74.7597 70.9091 75.0729 70.1333C75.5963 68.837 75.5886 67.4126 75.051 66.1223C74.5807 64.9933 73.754 64.0853 72.6951 63.5219C72.5438 63.4414 72.3878 63.3679 72.2274 63.3019L49.7812 54.0588L60.2295 50.7928C62.7152 50.0157 64.1152 47.3382 63.3502 44.8246C63.0648 43.8863 62.4988 43.095 61.7678 42.5167C60.6799 41.6559 59.2258 41.2672 57.7838 41.573C57.7769 41.5746 57.7702 41.5758 57.7633 41.5776C57.6834 41.5957 49.6736 43.4146 41.3082 45.0619C40.9372 45.135 40.5756 45.2055 40.2191 45.2749C39.9339 45.3302 39.6526 45.3848 39.3766 45.4378C39.2973 45.4532 39.2178 45.4683 39.1391 45.4834C38.6518 45.5769 38.1798 45.6663 37.7209 45.7524C37.5363 45.7871 37.3532 45.8213 37.1731 45.8548C26.6674 47.8093 23.7161 47.8444 22.8971 47.7324C22.8939 47.732 22.8911 47.7316 22.888 47.731C22.8756 47.7292 22.8633 47.7274 22.8519 47.7256C22.8436 47.7243 22.8359 47.7229 22.8282 47.7217C22.8227 47.7207 22.8168 47.7197 22.8114 47.7189C22.7604 47.7095 22.7205 47.6997 22.6897 47.6904L22.4534 47.5932L22.7479 46.8638C23.0375 46.1466 23.0332 45.3585 22.7359 44.6447C22.6615 44.4662 22.571 44.2977 22.466 44.1407C22.1512 43.67 21.706 43.3034 21.1734 43.0841L13.4271 39.8944C12.7172 39.6017 11.9366 39.6063 11.2298 39.9065C10.5228 40.2067 9.97421 40.7671 9.68462 41.4841L0.212537 64.9447C-0.385176 66.4251 0.32123 68.1204 1.78711 68.7243L9.53352 71.9141C9.88721 72.0598 10.2531 72.1287 10.6135 72.1287C11.7464 72.1287 12.8223 71.447 13.2758 70.324L13.3471 70.1477L15.1331 70.883C15.1341 70.8834 15.1351 70.884 15.1362 70.8844C16.8446 71.5878 18.4185 72.5915 19.7809 73.837C20.0286 74.0635 20.2693 74.298 20.5026 74.54C20.736 74.7821 20.9617 75.0319 21.1797 75.2889C21.2886 75.4174 21.3957 75.5479 21.5004 75.68C23.4855 78.1798 26.0878 80.1407 29.0257 81.3505L31.035 82.1779H16.3167C15.2818 82.1779 14.4397 81.3274 14.4397 80.2823V76.597C14.4397 75.7925 13.7941 75.1405 12.9975 75.1405C12.2009 75.1405 11.5553 75.7925 11.5553 76.597V80.2823C11.5553 82.9337 13.6911 85.0908 16.3167 85.0908H38.1092L56.6878 92.7412C57.3273 93.0046 57.989 93.1295 58.6405 93.1293C60.688 93.1293 62.6326 91.8971 63.4522 89.8673C63.7884 89.0348 63.8963 88.1646 63.8057 87.3281C64.7721 87.4681 65.774 87.3396 66.6823 86.9436C67.6053 86.541 68.3702 85.8997 68.9135 85.0906H96.2387C98.8641 85.0906 101 82.9337 101 80.2821V13.4977C101 13.4957 101 13.4942 101 13.4922ZM50.1581 3.78385H62.3969L64.2888 12.0413H48.2662L50.1581 3.78385ZM45.3056 12.0413H15.1092L18.3031 3.78385H47.1976L45.3056 12.0413ZM64.6611 35.5173H64.6609L57.7246 29.3117C57.3121 28.9427 56.7949 28.7583 56.2779 28.7583C55.7607 28.7583 55.2432 28.9427 54.8308 29.3117L47.8947 35.5173V14.9542H64.6611V35.5173ZM10.61 69.2115L2.88844 66.032L12.3505 42.597L20.072 45.7767L10.61 69.2115ZM68.2282 78.0013L66.573 77.3195C66.5722 77.3191 66.5714 77.3189 66.5706 77.3185C66.57 77.3183 66.5694 77.3179 66.5688 77.3177C66.5686 77.3177 66.5684 77.3175 66.5682 77.3175L49.33 70.2192C48.5926 69.9156 47.7509 70.273 47.4501 71.0181C47.1492 71.7629 47.5033 72.613 48.2411 72.9168L65.4797 80.0154C65.5517 80.045 65.6214 80.0779 65.6886 80.114C65.7076 80.1241 65.7251 80.1365 65.7437 80.147C65.791 80.1741 65.8385 80.2012 65.8833 80.2313C65.9048 80.2458 65.9246 80.2626 65.9455 80.2777C65.9851 80.3064 66.0256 80.3347 66.063 80.3658C66.0857 80.3845 66.1062 80.4054 66.1281 80.4249C66.1617 80.455 66.196 80.4841 66.2276 80.516C66.2495 80.5379 66.269 80.562 66.2899 80.5847C66.3189 80.6162 66.3487 80.6471 66.3759 80.6801C66.3966 80.7054 66.4148 80.7323 66.4345 80.7584C66.4591 80.7911 66.4848 80.8232 66.5075 80.8571C66.5266 80.8853 66.543 80.9152 66.5607 80.9441C66.5812 80.9776 66.603 81.0105 66.6217 81.0449C66.6387 81.076 66.6529 81.1085 66.6684 81.1401C66.685 81.1742 66.703 81.2077 66.7179 81.2425C66.7324 81.276 66.744 81.3107 66.7568 81.3447C66.7698 81.3792 66.784 81.4131 66.7955 81.4481C66.8069 81.4834 66.8156 81.5195 66.8253 81.5551C66.8349 81.5904 66.8458 81.625 66.8539 81.6607C66.862 81.6968 66.8671 81.7334 66.8736 81.7697C66.8801 81.8059 66.8876 81.8418 66.8923 81.8784C66.8971 81.9151 66.8988 81.9521 66.9018 81.989C66.9048 82.0261 66.9091 82.0629 66.9103 82.1C66.9115 82.1364 66.9097 82.1733 66.9093 82.2099C66.9089 82.2478 66.9095 82.2856 66.9071 82.3237C66.905 82.3598 66.8996 82.3958 66.8957 82.4319C66.8915 82.4707 66.8884 82.5096 66.8821 82.5482C66.8764 82.5837 66.8675 82.6189 66.8602 82.6544C66.8519 82.6936 66.845 82.7329 66.8345 82.7719C66.8255 82.8064 66.8132 82.8407 66.8024 82.8749C66.7902 82.914 66.7789 82.953 66.7645 82.9915C66.7523 83.018 66.7402 83.0447 66.729 83.0716C66.7264 83.0777 66.7251 83.0841 66.7227 83.0901C66.4974 83.6154 66.0816 84.0328 65.5385 84.2697C64.9408 84.53 64.2565 84.5392 63.6607 84.2938L60.6065 83.0361C60.5923 83.0303 60.5779 83.0263 60.5637 83.021C60.5493 83.0144 60.5357 83.0068 60.5211 83.0008L46.5002 77.2273C45.7623 76.9237 44.9209 77.2811 44.6203 78.0262C44.3195 78.771 44.6736 79.6211 45.4111 79.9249L59.432 85.6985C59.447 85.7046 59.4621 85.709 59.4773 85.7146C59.4909 85.7206 59.5036 85.7279 59.5176 85.7335C60.6943 86.2182 61.2614 87.5793 60.7817 88.7676C60.3017 89.9563 58.9546 90.5293 57.7773 90.0442L38.9395 82.287C38.9387 82.2866 38.9379 82.2862 38.9371 82.2858L30.1154 78.6531C28.5625 78.0136 27.1205 77.1261 25.8476 76.0342C25.0837 75.3789 24.3809 74.6504 23.7512 73.8575C23.1308 73.0764 22.4502 72.3478 21.718 71.6783C20.1069 70.2054 18.2457 69.0187 16.2259 68.1868C16.2257 68.1868 16.2255 68.1866 16.2253 68.1866L14.4369 67.4503L17.999 58.6279L21.3651 50.2908L21.6135 50.393C21.8472 50.4892 22.1806 50.6259 23.0777 50.6601C24.1986 50.7113 26.0529 50.5932 29.3749 50.1193C31.6345 49.7969 34.4063 49.3307 37.642 48.7295C37.7217 48.7148 37.8008 48.7 37.8813 48.6851C38.0326 48.6568 38.1855 48.6281 38.339 48.5994C38.4583 48.5771 38.5783 48.5544 38.6992 48.5315C38.8369 48.5054 38.9752 48.4793 39.1144 48.4528C39.2622 48.4247 39.4117 48.3962 39.562 48.3673C39.6824 48.3442 39.8025 48.3213 39.924 48.298C40.1073 48.2627 40.2937 48.2267 40.4807 48.1904C40.577 48.1717 40.6722 48.1534 40.7693 48.1346C41.0557 48.0789 41.3459 48.0223 41.6414 47.9643C49.978 46.3267 58.0245 44.5041 58.3861 44.422C58.4222 44.4144 58.4583 44.4101 58.4944 44.4047C59.4207 44.2662 60.3283 44.8073 60.5941 45.6803C60.6874 45.9871 60.6982 46.3 60.6394 46.5945C60.5102 47.2425 60.0439 47.8017 59.3773 48.0099L45.0791 52.4792C44.497 52.6613 44.091 53.1926 44.0648 53.8074C44.0384 54.422 44.397 54.9872 44.9612 55.2194L71.1391 65.9993C71.7092 66.234 72.1546 66.6789 72.3933 67.252C72.632 67.8252 72.6355 68.4579 72.4029 69.0334C72.1704 69.6092 71.7301 70.059 71.1625 70.3001C70.8789 70.4204 70.5804 70.4814 70.2815 70.4832C70.2772 70.4832 70.2729 70.4826 70.2685 70.4826C70.1983 70.4826 70.1283 70.4798 70.0583 70.4732C70.0375 70.4712 70.017 70.4668 69.9963 70.4644C69.9428 70.4578 69.8894 70.4517 69.8363 70.4413C69.8028 70.4347 69.7697 70.4248 69.7363 70.4168C69.6965 70.4072 69.6564 70.3991 69.617 70.3873C69.5761 70.3752 69.5361 70.359 69.4958 70.3445C69.4639 70.3329 69.4313 70.3234 69.3998 70.3104L52.1596 63.2111C51.422 62.9073 50.5805 63.2649 50.2796 64.01C49.9788 64.7548 50.3329 65.6049 51.0707 65.9087L71.9719 74.5155C72.1145 74.5741 72.2493 74.646 72.3749 74.7297C72.7519 74.9807 73.0472 75.3383 73.2261 75.7682C73.435 76.2697 73.4638 76.8167 73.3119 77.3313C73.2902 77.4048 73.2648 77.4777 73.2358 77.5496C73.2058 77.6239 73.1725 77.6959 73.136 77.7652C73.051 77.9265 72.9474 78.0724 72.8318 78.2053C72.76 78.2877 72.6833 78.3646 72.6016 78.4352C72.5886 78.4463 72.5767 78.4591 72.5635 78.4698C72.0372 78.9045 71.3336 79.0914 70.6461 78.9511C70.5066 78.9226 70.368 78.8822 70.2314 78.826L68.2282 78.0013Z" fill="white"/>
</svg>
