<svg width="110" height="86" viewBox="0 0 110 86" fill="none" xmlns="http://www.w3.org/2000/svg">
<path d="M103.917 43.7421H94.6698V18.756C94.6698 15.4312 91.9649 12.7266 88.6404 12.7266H74.7248V6.73631C74.7248 3.51301 72.1024 0.890839 68.8793 0.890839H5.84547C2.62238 0.890839 0 3.51301 0 6.73631V9.31379C0 10.2039 0.721445 10.9251 1.61133 10.9251C2.50121 10.9251 3.22266 10.2039 3.22266 9.31379V6.73631C3.22266 5.29019 4.39936 4.1135 5.84547 4.1135H68.8791C70.3252 4.1135 71.5019 5.29019 71.5019 6.73631V57.4852H3.22266V16.8688C3.22266 15.9787 2.50121 15.2574 1.61133 15.2574C0.721445 15.2574 0 15.9787 0 16.8688V71.4885C0 74.7118 2.62238 77.334 5.84547 77.334H9.54852C10.3587 81.7512 14.2366 85.1089 18.8843 85.1089C23.5321 85.1089 27.41 81.7512 28.2202 77.334H53.8525C54.7424 77.334 55.4638 76.6127 55.4638 75.7226C55.4638 74.8325 54.7424 74.1113 53.8525 74.1113H28.256C27.5322 69.591 23.6053 66.1262 18.8841 66.1262C14.1629 66.1262 10.2362 69.5912 9.51242 74.1115H5.84547C4.39936 74.1115 3.22266 72.9348 3.22266 71.4887V60.7079H71.5019V74.1115H61.2434C60.3535 74.1115 59.632 74.8328 59.632 75.7229C59.632 76.613 60.3535 77.3342 61.2434 77.3342H82.1404C82.9505 81.7514 86.8285 85.1092 91.476 85.1092C96.1235 85.1092 100.002 81.7514 100.812 77.3342H103.97C107.295 77.3342 110 74.6293 110 71.3048V49.8252C110 46.4708 107.271 43.7421 103.917 43.7421ZM18.8841 69.3491C22.3407 69.3491 25.1528 72.1612 25.1528 75.6178C25.1528 79.0744 22.3407 81.8867 18.8841 81.8867C15.4275 81.8867 12.6154 79.0744 12.6154 75.6178C12.6154 72.1612 15.4277 69.3491 18.8841 69.3491ZM91.4762 81.8865C88.0196 81.8865 85.2075 79.0742 85.2075 75.6176C85.2075 72.161 88.0196 69.3489 91.4762 69.3489C94.9328 69.3489 97.7449 72.161 97.7449 75.6176C97.7449 79.0742 94.9328 81.8865 91.4762 81.8865ZM106.777 58.5616H102.489C101.601 58.5616 100.878 57.8388 100.878 56.9502C100.878 56.0616 101.601 55.3389 102.489 55.3389H106.777V58.5616ZM106.777 52.1163H102.489C99.8239 52.1163 97.6553 54.2849 97.6553 56.9502C97.6553 59.6156 99.8237 61.7842 102.489 61.7842H106.777V71.3046C106.777 72.8523 105.518 74.1113 103.971 74.1113H100.848C100.124 69.591 96.1974 66.1262 91.4762 66.1262C86.755 66.1262 82.8283 69.591 82.1045 74.1113H74.7246V15.9492H88.6402C90.188 15.9492 91.447 17.2082 91.447 18.756V19.1313H80.659C79.7691 19.1313 79.0477 19.8525 79.0477 20.7426V45.3534C79.0477 46.2435 79.7691 46.9647 80.659 46.9647H103.917C105.494 46.9647 106.777 48.248 106.777 49.8249V52.1163H106.777ZM91.4472 22.3539V43.7421H82.2705V22.3539H91.4472Z" fill="white"/>
<path d="M84.3855 52.1162H80.6602C79.7703 52.1162 79.0488 52.8375 79.0488 53.7276C79.0488 54.6177 79.7703 55.3389 80.6602 55.3389H84.3855C85.2754 55.3389 85.9969 54.6177 85.9969 53.7276C85.9969 52.8375 85.2754 52.1162 84.3855 52.1162Z" fill="white"/>
<path d="M46.8145 27.1967C47.7044 27.1967 48.4258 26.4755 48.4258 25.5854C48.4258 24.6953 47.7044 23.9741 46.8145 23.9741H40.373C39.4832 23.9741 38.7617 24.6953 38.7617 25.5854V38.4724C38.7617 39.3625 39.4832 40.0837 40.373 40.0837H46.8145C47.7044 40.0837 48.4258 39.3625 48.4258 38.4724C48.4258 37.5823 47.7044 36.8611 46.8145 36.8611H41.9844V33.6403H46.8145C47.7044 33.6403 48.4258 32.9191 48.4258 32.029C48.4258 31.1389 47.7044 30.4177 46.8145 30.4177H41.9844V27.1967H46.8145Z" fill="white"/>
<path d="M59.4864 27.1967C60.3763 27.1967 61.0977 26.4755 61.0977 25.5854C61.0977 24.6953 60.3763 23.9741 59.4864 23.9741H53.0449C52.155 23.9741 51.4336 24.6953 51.4336 25.5854V38.4724C51.4336 39.3625 52.155 40.0837 53.0449 40.0837H59.4864C60.3763 40.0837 61.0977 39.3625 61.0977 38.4724C61.0977 37.5823 60.3763 36.8611 59.4864 36.8611H54.6563V33.6403H59.4864C60.3763 33.6403 61.0977 32.9191 61.0977 32.029C61.0977 31.1389 60.3763 30.4177 59.4864 30.4177H54.6563V27.1967H59.4864Z" fill="white"/>
<path d="M21.6797 27.1967C22.5696 27.1967 23.2911 26.4755 23.2911 25.5854C23.2911 24.6953 22.5696 23.9741 21.6797 23.9741H15.2383C14.3484 23.9741 13.627 24.6953 13.627 25.5854V38.4724C13.627 39.3625 14.3484 40.0837 15.2383 40.0837C16.1282 40.0837 16.8496 39.3625 16.8496 38.4724V33.6403H21.6797C22.5696 33.6403 23.2911 32.9191 23.2911 32.029C23.2911 31.1389 22.5696 30.4177 21.6797 30.4177H16.8496V27.1967H21.6797Z" fill="white"/>
<path d="M35.752 32.0292V25.5856C35.752 24.6955 35.0305 23.9743 34.1407 23.9743H27.6992C26.8093 23.9743 26.0879 24.6955 26.0879 25.5856V38.4726C26.0879 39.3627 26.8093 40.0839 27.6992 40.0839C28.5891 40.0839 29.3105 39.3627 29.3105 38.4726V34.1338L32.8 39.3666C33.1105 39.8323 33.6214 40.0841 34.1422 40.0841C34.4494 40.0841 34.7598 39.9965 35.0346 39.8132C35.775 39.3193 35.975 38.319 35.4813 37.5786L32.855 33.6405H34.1407C35.0305 33.6405 35.752 32.9191 35.752 32.0292ZM32.5293 30.4179H29.3105V27.197H32.5293V30.4179Z" fill="white"/>
</svg>
