<svg width="164" height="30" viewBox="0 0 164 30" fill="none" xmlns="http://www.w3.org/2000/svg">
    <path d="M67.1544 25.7707H58.2658L56.57 29.875H52.0299L60.5631 10.7218H64.9392L73.4996 29.875H68.85L67.1542 25.7707H67.1544ZM65.7597 22.4052L62.7239 15.0723L59.688 22.4052H65.7597ZM75.4961 10.7216H79.9268V26.2631H89.5264V29.8748H75.4959V10.7216H75.4961ZM96.446 14.2787V19.3406H105.307V22.8977H96.446V29.8748H92.0153V10.7216H106.483V14.2787H96.446ZM121.307 25.7707H112.418L110.722 29.875H106.182L114.715 10.7218H119.091L127.652 29.875H123.002L121.307 25.7707H121.307ZM119.912 22.4052L116.876 15.0723L113.84 22.4052H119.912ZM141.847 29.8748L138.154 24.5394H137.936H134.079V29.8748H129.649V10.7216H137.936C139.631 10.7216 141.104 11.0044 142.353 11.5698C143.602 12.1354 144.563 12.938 145.238 13.9778C145.913 15.0175 146.25 16.2488 146.25 17.6716C146.25 19.0944 145.908 20.3211 145.224 21.3516C144.54 22.3823 143.57 23.1711 142.312 23.7184L146.605 29.8747H141.847V29.8748ZM141.765 17.6716C141.765 16.5953 141.418 15.7699 140.725 15.1954C140.032 14.6209 139.021 14.3334 137.689 14.3334H134.079V21.0097H137.689C139.021 21.0097 140.032 20.7177 140.725 20.134C141.418 19.5503 141.765 18.7294 141.765 17.6714V17.6716ZM153.443 14.3335H147.316V10.7218H164V14.3335H157.874V29.875H153.443V14.3335Z" fill="#FF0000"/>
    <path d="M37.7284 29.9998C41.1073 29.9998 43.8464 27.2595 43.8464 23.8792C43.8464 20.4988 41.1073 17.7585 37.7284 17.7585C34.3495 17.7585 31.6103 20.4988 31.6103 23.8792C31.6103 27.2595 34.3495 29.9998 37.7284 29.9998Z" fill="#FF0000"/>
    <path d="M29.7369 0L13.1799 18.8271H0L7.34576 29.9306H18.1594L36.0743 9.48495L29.7369 0Z" fill="#FF0000"/>
</svg>
